<?xml version="1.0" standalone="no"?>
<!DOCTYPE svg PUBLIC "-//W3C//DTD SVG 20010904//EN"
 "http://www.w3.org/TR/2001/REC-SVG-20010904/DTD/svg10.dtd">
<svg version="1.0" xmlns="http://www.w3.org/2000/svg"
 width="1366.000000pt" height="1366.000000pt" viewBox="0 0 1366.000000 1366.000000"
 preserveAspectRatio="xMidYMid meet">
<metadata>
Created by potrace 1.14, written by Peter Selinger 2001-2017
</metadata>
<g transform="translate(0.000000,1366.000000) scale(0.100000,-0.100000)"
fill="#000000" stroke="none">
<path d="M1849 13656 c-2 -2 -33 -6 -69 -9 -180 -15 -436 -87 -626 -177 -81
-37 -242 -126 -254 -140 -3 -3 -25 -18 -50 -35 -41 -27 -113 -83 -184 -145
-66 -58 -174 -172 -223 -236 -13 -16 -37 -47 -54 -69 -159 -206 -304 -539
-353 -815 -8 -47 -19 -101 -23 -120 -4 -19 -8 -2292 -10 -5050 -2 -4896 -1
-5018 17 -5137 25 -159 41 -226 85 -358 33 -97 99 -255 125 -295 5 -8 16 -28
23 -45 18 -39 118 -189 129 -193 4 -2 8 -10 8 -18 0 -8 4 -14 8 -14 4 0 15
-12 24 -27 35 -58 181 -209 295 -305 264 -221 600 -378 938 -437 33 -6 76 -14
95 -18 51 -10 10033 -13 10110 -3 36 5 83 11 105 14 141 17 375 88 530 160 50
23 93 43 97 44 14 4 203 124 253 160 68 50 210 176 265 236 25 27 54 59 65 70
11 12 33 39 49 61 17 22 33 42 37 45 32 23 262 430 243 430 -3 0 -2 6 4 13 26
32 100 285 129 447 17 89 18 391 20 5105 1 2767 -2 5039 -7 5075 -27 201 -65
357 -127 514 -39 100 -132 289 -145 294 -4 2 -8 8 -8 14 0 11 -107 169 -142
209 -13 15 -32 38 -43 52 -36 45 -129 140 -191 194 -117 104 -126 110 -324
239 -131 86 -458 208 -630 237 -14 3 -44 8 -68 12 -23 4 -54 9 -70 13 -29 6
-10046 15 -10053 8z"/>
</g>
</svg>
